<?xml version="1.0" encoding="utf-8"?>
<!-- Generator: Adobe Illustrator 16.0.0, SVG Export Plug-In . SVG Version: 6.00 Build 0)  -->
<!DOCTYPE svg PUBLIC "-//W3C//DTD SVG 1.1//EN" "http://www.w3.org/Graphics/SVG/1.1/DTD/svg11.dtd">
<svg version="1.1" id="Capa_1" xmlns="http://www.w3.org/2000/svg" xmlns:xlink="http://www.w3.org/1999/xlink" x="0px" y="0px"
	 width="226.77px" height="226.77px" viewBox="0 0 226.77 226.77" enable-background="new 0 0 226.77 226.77" xml:space="preserve">
<path d="M207.598-20.804c-24.182,0-43.787,19.605-43.787,43.787c0,24.183,19.605,43.787,43.787,43.787
	c24.183,0,43.787-19.604,43.787-43.787S231.78-20.804,207.598-20.804z M226.755,30.495h-11.644v11.644
	c0,4.149-3.363,7.513-7.513,7.513s-7.513-3.363-7.513-7.513V30.495h-11.645c-4.148,0-7.513-3.363-7.513-7.514
	c0-4.148,3.363-7.513,7.513-7.513h11.645V3.825c0-4.149,3.363-7.513,7.513-7.513s7.513,3.363,7.513,7.513v11.644h11.644
	c4.149,0,7.513,3.364,7.513,7.513C234.268,27.132,230.904,30.495,226.755,30.495z"/>
<g>
	<path fill="none" d="M46.195,41.995v25.196c0,12.207,4.323,16.797,16.796,16.797h109.187c7.887,0,12.508-1.633,14.846-6.046
		c-5.371-2.021-10.363-4.81-14.847-8.235v5.883h-58.792V33.596h36.75c-0.486-2.738-0.781-5.541-0.871-8.397H62.991
		C50.517,25.198,46.195,29.263,46.195,41.995z"/>
	<path d="M187.023,77.943c-2.338,4.413-6.959,6.046-14.846,6.046H62.991c-12.474,0-16.796-4.59-16.796-16.797V41.995
		c0-12.732,4.322-16.797,16.796-16.797h86.273c-0.02-0.621-0.047-1.239-0.047-1.864c0-8.299,1.744-16.187,4.868-23.334H28.463v0.021
		c-1.907-0.013-3.917-0.021-6.066-0.021c-10.049,0-18.198,8.461-18.198,18.897v188.975c0,10.436,8.148,18.896,18.198,18.896
		c2.354,0,4.358-0.026,6.066-0.102v0.101h9.333v-4.5c0.503-2.503,0-6.349,0-12.297v-83.989c0-12.994,4.585-16.797,16.797-16.797
		h117.584c12.475,0,16.798,4.328,16.798,16.797v100.786h9.332v-0.111c1.725,0.115,3.728,0.111,6.064,0.111
		c10.051,0,18.199-8.462,18.199-18.896V79.706c-4.793,1.274-9.825,1.962-15.02,1.962C200.324,81.668,193.41,80.344,187.023,77.943z"
		/>
	<path d="M113.385,75.59h58.792v-5.883c-11.367-8.684-19.438-21.45-22.041-36.111h-36.75V75.59z"/>
	<rect x="54.593" y="125.984" width="117.584" height="100.786"/>
</g>
</svg>
